<?xml version="1.0" encoding="UTF-8" standalone="no"?>
<svg
   xmlns:dc="http://purl.org/dc/elements/1.1/"
   xmlns:cc="http://creativecommons.org/ns#"
   xmlns:rdf="http://www.w3.org/1999/02/22-rdf-syntax-ns#"
   xmlns:svg="http://www.w3.org/2000/svg"
   xmlns="http://www.w3.org/2000/svg"
   xmlns:sodipodi="http://sodipodi.sourceforge.net/DTD/sodipodi-0.dtd"
   xmlns:inkscape="http://www.inkscape.org/namespaces/inkscape"
   id="svg8"
   version="1.1"
   viewBox="0 0 696.71527 174.32873"
   height="174.32874mm"
   width="696.71527mm"
   sodipodi:docname="logo.svg"
   inkscape:version="0.92.2 (unknown)">
  <sodipodi:namedview
     pagecolor="#ffffff"
     bordercolor="#666666"
     borderopacity="1"
     objecttolerance="10"
     gridtolerance="10"
     guidetolerance="10"
     inkscape:pageopacity="0"
     inkscape:pageshadow="2"
     inkscape:window-width="1920"
     inkscape:window-height="1056"
     id="namedview4776"
     showgrid="false"
     inkscape:zoom="1.427031"
     inkscape:cx="704.82294"
     inkscape:cy="279.36384"
     inkscape:window-x="0"
     inkscape:window-y="24"
     inkscape:window-maximized="1"
     inkscape:current-layer="svg8"
     fit-margin-top="20"
     fit-margin-left="20"
     fit-margin-right="20"
     fit-margin-bottom="20"
     inkscape:showpageshadow="false"
     showborder="true" />
  <defs
     id="defs2" />
  <metadata
     id="metadata5">
    <rdf:RDF>
      <cc:Work
         rdf:about="">
        <dc:format>image/svg+xml</dc:format>
        <dc:type
           rdf:resource="http://purl.org/dc/dcmitype/StillImage" />
        <dc:title />
      </cc:Work>
    </rdf:RDF>
  </metadata>
  <g
     id="g4626"
     transform="translate(13.678741,13.73882)" />
  <path
     style="fill:#f7f7f7;fill-opacity:1;stroke:#4e4e4e;stroke-width:5.29166651;stroke-miterlimit:4;stroke-dasharray:none;stroke-opacity:1;paint-order:normal"
     d="m 62.617035,22.64583 a 39.970985,39.970985 0 0 0 -39.971202,39.9712 39.970985,39.970985 0 0 0 5.005895,19.27686 L 62.617035,148.6278 97.329129,82.37706 A 39.970985,39.970985 0 0 0 102.58772,62.61703 39.970985,39.970985 0 0 0 62.617035,22.64583 Z"
     id="path10"
     inkscape:connector-curvature="0" />
  <g
     id="g4637"
     transform="translate(-7.4031259,6.40666)">
    <circle
       r="6.6847796"
       cy="50.385464"
       cx="52.690712"
       id="path4564"
       style="fill:#0067f6;fill-opacity:0.81094528;stroke:none;stroke-width:0.33087975;stroke-opacity:1" />
    <circle
       r="6.6847796"
       cy="50.385464"
       cx="87.538094"
       id="path4564-5"
       style="fill:#0067f6;fill-opacity:0.81094528;stroke:none;stroke-width:0.33087975;stroke-opacity:1" />
  </g>
  <g
     id="g4633"
     transform="translate(-7.8755909,12.22751)">
    <path
       style="fill:#f69300;fill-opacity:0.81094528;stroke-width:0.14485432"
       d="M 237.01953 274.95508 L 207.62109 288.63672 L 237.01953 335.10156 L 266.41602 288.63672 L 237.01953 274.95508 z "
       transform="matrix(0.26458333,0,0,0.26458333,7.8755909,-12.22751)"
       id="rect14-3-3" />
  </g>
  <g
     aria-label="Pin-GUI-n"
     style="font-style:normal;font-weight:normal;font-size:10.58333302px;line-height:6.61458302px;font-family:sans-serif;letter-spacing:-3.96875px;word-spacing:0px;fill:#4d4d4d;fill-opacity:1;stroke:none;stroke-width:0.26458332"
     id="text4805">
    <path
       sodipodi:type="inkscape:offset"
       inkscape:radius="0"
       inkscape:original="M 239.01367 42.501953 C 237.10867 42.501953 235.55687 43.10329 234.35742 44.302734 C 233.22854 45.431623 232.66406 46.911649 232.66406 48.746094 C 232.66406 50.580538 233.22854 52.09743 234.35742 53.296875 C 235.55687 54.425764 237.10867 54.990234 239.01367 54.990234 C 240.98923 54.990234 242.57594 54.425764 243.77539 53.296875 C 244.97484 52.09743 245.57422 50.580538 245.57422 48.746094 C 245.57422 46.911649 244.97484 45.431623 243.77539 44.302734 C 242.57594 43.10329 240.98923 42.501953 239.01367 42.501953 z M 421.08203 50.228516 C 415.64926 50.228516 410.60393 51.675581 405.94727 54.568359 C 401.2906 57.390581 397.55074 61.623133 394.72852 67.267578 C 391.9063 72.912023 390.49609 79.755495 390.49609 87.798828 C 390.49609 100.14605 393.00032 109.53061 398.00977 115.95117 C 403.08977 122.30117 410.07484 125.47656 418.96484 125.47656 C 423.76262 125.47656 427.99517 124.94701 431.66406 123.88867 C 435.4035 122.75979 439.10845 121.17307 442.77734 119.12695 L 442.77734 84.412109 L 418.22461 84.412109 L 419.2832 92.138672 L 433.57031 92.138672 L 433.57031 114.25781 C 429.47809 116.58615 424.85563 117.75 419.70508 117.75 C 413.21396 117.75 408.34712 115.35051 405.10156 110.55273 C 401.92656 105.75495 400.33789 98.170494 400.33789 87.798828 C 400.33789 77.356605 402.31451 69.772144 406.26562 65.044922 C 410.21673 60.317699 415.15536 57.955078 421.08203 57.955078 C 424.11592 57.955078 426.83158 58.447769 429.23047 59.435547 C 431.69992 60.423325 434.06449 61.940217 436.32227 63.986328 L 441.82422 58.271484 C 438.79033 55.449262 435.72163 53.402813 432.61719 52.132812 C 429.51274 50.862812 425.66814 50.228516 421.08203 50.228516 z M 160.05078 51.392578 L 160.05078 124.3125 L 169.15234 124.3125 L 169.15234 97.21875 L 178.57031 97.21875 C 187.3192 97.21875 194.19954 95.34882 199.20898 91.609375 C 204.21843 87.86993 206.72266 81.943967 206.72266 73.830078 C 206.72266 66.351189 204.25335 60.741398 199.31445 57.001953 C 194.44612 53.262509 187.53087 51.392578 178.57031 51.392578 L 160.05078 51.392578 z M 452.84375 51.392578 L 452.84375 100.71094 C 452.84375 105.57927 453.79617 109.8836 455.70117 113.62305 C 457.67673 117.36249 460.46221 120.28958 464.06055 122.40625 C 467.65888 124.45236 471.9283 125.47656 476.86719 125.47656 C 481.73552 125.47656 485.96807 124.45236 489.56641 122.40625 C 493.23529 120.36014 496.05764 117.46796 498.0332 113.72852 C 500.07931 109.91852 501.10352 105.57927 501.10352 100.71094 L 501.10352 51.392578 L 491.78906 51.392578 L 491.78906 101.0293 C 491.78906 106.53263 490.4836 110.65849 487.87305 113.41016 C 485.33305 116.16182 481.66497 117.53906 476.86719 117.53906 C 472.06941 117.53906 468.40133 116.16182 465.86133 113.41016 C 463.32133 110.65849 462.05078 106.53263 462.05078 101.0293 L 462.05078 51.392578 L 452.84375 51.392578 z M 515.61328 51.392578 L 515.61328 58.800781 L 531.80664 58.800781 L 531.80664 117.00977 L 515.61328 117.00977 L 515.61328 124.3125 L 557.3125 124.3125 L 557.3125 117.00977 L 541.11914 117.00977 L 541.11914 58.800781 L 557.3125 58.800781 L 557.3125 51.392578 L 515.61328 51.392578 z M 169.15234 58.695312 L 179.73438 58.695312 C 185.02604 58.695313 189.18877 59.928993 192.22266 62.398438 C 195.3271 64.797326 196.88086 68.64388 196.88086 73.935547 C 196.88086 79.791658 195.3271 83.919471 192.22266 86.318359 C 189.18877 88.717249 184.9213 89.916016 179.41797 89.916016 L 169.15234 89.916016 L 169.15234 58.695312 z M 304.11328 67.373047 C 300.72661 67.373047 297.33979 68.185816 293.95312 69.808594 C 290.63701 71.360816 287.88449 73.546918 285.69727 76.369141 L 284.95703 68.537109 L 277.33594 68.537109 L 277.33594 124.3125 L 286.22656 124.3125 L 286.22656 83.777344 C 287.9199 81.237344 290.10795 79.051241 292.78906 77.216797 C 295.47018 75.382352 298.32744 74.464844 301.36133 74.464844 C 304.11299 74.464844 306.15945 74.994401 307.5 76.052734 C 308.84056 77.111068 309.7212 78.7327 310.14453 80.919922 C 310.63842 83.107145 310.88672 86.282534 310.88672 90.445312 L 310.88672 124.3125 L 319.77539 124.3125 L 319.77539 83.882812 C 319.77539 72.876145 314.5555 67.373047 304.11328 67.373047 z M 661.05273 67.373047 C 657.66607 67.373047 654.27924 68.185816 650.89258 69.808594 C 647.57646 71.360816 644.82394 73.546918 642.63672 76.369141 L 641.89648 68.537109 L 634.27539 68.537109 L 634.27539 124.3125 L 643.16602 124.3125 L 643.16602 83.777344 C 644.85935 81.237344 647.0474 79.051241 649.72852 77.216797 C 652.40963 75.382352 655.26689 74.464844 658.30078 74.464844 C 661.05245 74.464844 663.0989 74.994401 664.43945 76.052734 C 665.78001 77.111068 666.66065 78.7327 667.08398 80.919922 C 667.57787 83.107145 667.82617 86.282534 667.82617 90.445312 L 667.82617 124.3125 L 676.71484 124.3125 L 676.71484 83.882812 C 676.71484 72.876145 671.49495 67.373047 661.05273 67.373047 z M 220.59766 68.537109 L 220.59766 75.628906 L 237.21484 75.628906 L 237.21484 117.2207 L 220.06836 117.2207 L 220.06836 124.3125 L 261.76758 124.3125 L 261.76758 117.2207 L 246.10352 117.2207 L 246.10352 68.537109 L 220.59766 68.537109 z M 336.82617 87.376953 L 336.82617 94.996094 L 379.16016 94.996094 L 379.16016 87.376953 L 336.82617 87.376953 z M 574.78711 87.376953 L 574.78711 94.996094 L 617.11914 94.996094 L 617.11914 87.376953 L 574.78711 87.376953 z "
       style="font-style:normal;font-variant:normal;font-weight:normal;font-stretch:normal;font-size:105.83333588px;font-family:'Fira Code';-inkscape-font-specification:'Fira Code';letter-spacing:-3.96875px;fill:#4d4d4d;fill-opacity:1;stroke-width:0.26458332"
       id="path836"
       d="m 239.01367,42.501953 c -1.905,0 -3.4568,0.601337 -4.65625,1.800781 -1.12888,1.128889 -1.69336,2.608915 -1.69336,4.44336 0,1.834444 0.56448,3.351336 1.69336,4.550781 1.19945,1.128889 2.75125,1.693359 4.65625,1.693359 1.97556,0 3.56227,-0.56447 4.76172,-1.693359 1.19945,-1.199445 1.79883,-2.716337 1.79883,-4.550781 0,-1.834445 -0.59938,-3.314471 -1.79883,-4.44336 -1.19945,-1.199444 -2.78616,-1.800781 -4.76172,-1.800781 z m 182.06836,7.726563 c -5.43277,0 -10.4781,1.447065 -15.13476,4.339843 -4.65667,2.822222 -8.39653,7.054774 -11.21875,12.699219 -2.82222,5.644445 -4.23243,12.487917 -4.23243,20.53125 0,12.347222 2.50423,21.731782 7.51368,28.152342 5.08,6.35 12.06507,9.52539 20.95507,9.52539 4.79778,0 9.03033,-0.52955 12.69922,-1.58789 3.73944,-1.12888 7.44439,-2.7156 11.11328,-4.76172 V 84.412109 h -24.55273 l 1.05859,7.726563 h 14.28711 v 22.119138 c -4.09222,2.32834 -8.71468,3.49219 -13.86523,3.49219 -6.49112,0 -11.35796,-2.39949 -14.60352,-7.19727 -3.175,-4.79778 -4.76367,-12.382236 -4.76367,-22.753902 0,-10.442223 1.97662,-18.026684 5.92773,-22.753906 3.95111,-4.727223 8.88974,-7.089844 14.81641,-7.089844 3.03389,0 5.74955,0.492691 8.14844,1.480469 2.46945,0.987778 4.83402,2.50467 7.0918,4.550781 l 5.50195,-5.714844 c -3.03389,-2.822222 -6.10259,-4.868671 -9.20703,-6.138672 -3.10445,-1.27 -6.94905,-1.904296 -11.53516,-1.904296 z M 160.05078,51.392578 V 124.3125 h 9.10156 V 97.21875 h 9.41797 c 8.74889,0 15.62923,-1.86993 20.63867,-5.609375 5.00945,-3.739445 7.51368,-9.665408 7.51368,-17.779297 0,-7.478889 -2.46931,-13.08868 -7.40821,-16.828125 -4.86833,-3.739444 -11.78358,-5.609375 -20.74414,-5.609375 z m 292.79297,0 v 49.318362 c 0,4.86833 0.95242,9.17266 2.85742,12.91211 1.97556,3.73944 4.76104,6.66653 8.35938,8.7832 3.59833,2.04611 7.86775,3.07031 12.80664,3.07031 4.86833,0 9.10088,-1.0242 12.69922,-3.07031 3.66888,-2.04611 6.49123,-4.93829 8.46679,-8.67773 2.04611,-3.81 3.07032,-8.14925 3.07032,-13.01758 V 51.392578 h -9.31446 V 101.0293 c 0,5.50333 -1.30546,9.62919 -3.91601,12.38086 -2.54,2.75166 -6.20808,4.1289 -11.00586,4.1289 -4.79778,0 -8.46586,-1.37724 -11.00586,-4.1289 -2.54,-2.75167 -3.81055,-6.87753 -3.81055,-12.38086 V 51.392578 Z m 62.76953,0 v 7.408203 h 16.19336 v 58.208989 h -16.19336 v 7.30273 h 41.69922 v -7.30273 H 541.11914 V 58.800781 h 16.19336 v -7.408203 z m -346.46094,7.302734 h 10.58204 c 5.29166,10e-7 9.45439,1.233681 12.48828,3.703126 3.10444,2.398888 4.6582,6.245442 4.6582,11.537109 0,5.856111 -1.55376,9.983924 -4.6582,12.382812 -3.03389,2.39889 -7.30136,3.597657 -12.80469,3.597657 h -10.26563 z m 134.96094,8.677735 c -3.38667,0 -6.77349,0.812769 -10.16016,2.435547 -3.31611,1.552222 -6.06863,3.738324 -8.25585,6.560547 l -0.74024,-7.832032 h -7.62109 V 124.3125 h 8.89062 V 83.777344 c 1.69334,-2.54 3.88139,-4.726103 6.5625,-6.560547 2.68112,-1.834445 5.53838,-2.751953 8.57227,-2.751953 2.75166,0 4.79812,0.529557 6.13867,1.58789 1.34056,1.058334 2.2212,2.679966 2.64453,4.867188 0.49389,2.187223 0.74219,5.362612 0.74219,9.52539 V 124.3125 h 8.88867 V 83.882812 c 0,-11.006667 -5.21989,-16.509765 -15.66211,-16.509765 z m 356.93945,0 c -3.38666,0 -6.77349,0.812769 -10.16015,2.435547 -3.31612,1.552222 -6.06864,3.738324 -8.25586,6.560547 l -0.74024,-7.832032 h -7.62109 V 124.3125 h 8.89063 V 83.777344 c 1.69333,-2.54 3.88138,-4.726103 6.5625,-6.560547 2.68111,-1.834445 5.53837,-2.751953 8.57226,-2.751953 2.75167,0 4.79812,0.529557 6.13867,1.58789 1.34056,1.058334 2.2212,2.679966 2.64453,4.867188 0.49389,2.187223 0.74219,5.362612 0.74219,9.52539 V 124.3125 h 8.88867 V 83.882812 c 0,-11.006667 -5.21989,-16.509765 -15.66211,-16.509765 z m -440.45507,1.164062 v 7.091797 h 16.61718 V 117.2207 h -17.14648 v 7.0918 h 41.69922 v -7.0918 H 246.10352 V 68.537109 Z m 116.22851,18.839844 v 7.619141 h 42.33399 v -7.619141 z m 237.96094,0 v 7.619141 h 42.33203 v -7.619141 z" />
  </g>
</svg>
